<svg width="261" height="261" viewBox="0 0 261 261" fill="none" xmlns="http://www.w3.org/2000/svg">
<rect width="261" height="261" rx="130.5" fill="#1C1C1C"/>
<path d="M53.779 175.872C51.3043 175.872 49.3843 175.232 48.019 173.952C46.739 172.587 46.099 170.667 46.099 168.192V166.016C46.099 163.541 46.739 161.664 48.019 160.384C49.3843 159.019 51.3043 158.336 53.779 158.336H55.443C57.9177 158.336 59.795 159.019 61.075 160.384C62.4403 161.664 63.123 163.541 63.123 166.016V168.192C63.123 170.667 62.4403 172.587 61.075 173.952C59.795 175.232 57.9177 175.872 55.443 175.872H53.779Z" fill="#DD26A6"/>
<path d="M101.91 168.192C101.91 170.411 101.142 172.288 99.606 173.824C98.1553 175.275 96.3207 176 94.102 176C91.9687 176 90.1767 175.275 88.726 173.824C87.2753 172.288 86.55 170.411 86.55 168.192V89.088C86.55 86.8693 87.2753 85.0347 88.726 83.584C90.262 82.048 92.1393 81.28 94.358 81.28C96.5767 81.28 98.3687 82.048 99.734 83.584C101.185 85.0347 101.91 86.8693 101.91 89.088V168.192Z" fill="#FFFDFC"/>
<path d="M155.384 106.24C160.248 106.24 164.472 106.752 168.056 107.776C171.725 108.8 174.541 110.251 176.504 112.128C178.552 113.92 179.576 116.096 179.576 118.656C179.576 120.363 179.064 121.984 178.04 123.52C177.016 124.971 175.523 125.696 173.56 125.696C172.195 125.696 171.043 125.525 170.104 125.184C169.251 124.757 168.483 124.245 167.8 123.648C167.117 123.051 166.307 122.496 165.368 121.984C164.515 121.472 163.192 121.088 161.4 120.832C159.693 120.491 158.413 120.32 157.56 120.32C153.208 120.32 149.496 121.259 146.424 123.136C143.437 125.013 141.133 127.573 139.512 130.816C137.891 133.973 137.08 137.643 137.08 141.824C137.08 145.92 137.891 149.589 139.512 152.832C141.219 155.989 143.523 158.507 146.424 160.384C149.411 162.261 152.824 163.2 156.664 163.2C158.797 163.2 160.632 163.072 162.168 162.816C163.704 162.56 164.984 162.176 166.008 161.664C167.203 160.981 168.269 160.256 169.208 159.488C170.147 158.72 171.555 158.336 173.432 158.336C175.651 158.336 177.357 159.061 178.552 160.512C179.747 161.877 180.344 163.584 180.344 165.632C180.344 167.765 179.149 169.728 176.76 171.52C174.371 173.227 171.213 174.635 167.288 175.744C163.448 176.768 159.267 177.28 154.744 177.28C148.003 177.28 142.157 175.744 137.208 172.672C132.259 169.515 128.419 165.248 125.688 159.872C123.043 154.496 121.72 148.48 121.72 141.824C121.72 134.827 123.128 128.683 125.944 123.392C128.845 118.016 132.813 113.835 137.848 110.848C142.968 107.776 148.813 106.24 155.384 106.24Z" fill="#22D3EE"/>
<path d="M214.46 168.192C214.46 170.411 213.692 172.288 212.156 173.824C210.705 175.275 208.871 176 206.652 176C204.519 176 202.727 175.275 201.276 173.824C199.825 172.288 199.1 170.411 199.1 168.192V89.088C199.1 86.8693 199.825 85.0347 201.276 83.584C202.812 82.048 204.689 81.28 206.908 81.28C209.127 81.28 210.919 82.048 212.284 83.584C213.735 85.0347 214.46 86.8693 214.46 89.088V168.192Z" fill="#FFFDFC"/>
<path d="M53.779 175.872C51.3043 175.872 49.3843 175.232 48.019 173.952C46.739 172.587 46.099 170.667 46.099 168.192V166.016C46.099 163.541 46.739 161.664 48.019 160.384C49.3843 159.019 51.3043 158.336 53.779 158.336H55.443C57.9177 158.336 59.795 159.019 61.075 160.384C62.4403 161.664 63.123 163.541 63.123 166.016V168.192C63.123 170.667 62.4403 172.587 61.075 173.952C59.795 175.232 57.9177 175.872 55.443 175.872H53.779Z" fill="#DD26A6"/>
<path d="M101.91 168.192C101.91 170.411 101.142 172.288 99.606 173.824C98.1553 175.275 96.3207 176 94.102 176C91.9687 176 90.1767 175.275 88.726 173.824C87.2753 172.288 86.55 170.411 86.55 168.192V89.088C86.55 86.8693 87.2753 85.0347 88.726 83.584C90.262 82.048 92.1393 81.28 94.358 81.28C96.5767 81.28 98.3687 82.048 99.734 83.584C101.185 85.0347 101.91 86.8693 101.91 89.088V168.192Z" fill="#FFFDFC"/>
<path d="M155.384 106.24C160.248 106.24 164.472 106.752 168.056 107.776C171.725 108.8 174.541 110.251 176.504 112.128C178.552 113.92 179.576 116.096 179.576 118.656C179.576 120.363 179.064 121.984 178.04 123.52C177.016 124.971 175.523 125.696 173.56 125.696C172.195 125.696 171.043 125.525 170.104 125.184C169.251 124.757 168.483 124.245 167.8 123.648C167.117 123.051 166.307 122.496 165.368 121.984C164.515 121.472 163.192 121.088 161.4 120.832C159.693 120.491 158.413 120.32 157.56 120.32C153.208 120.32 149.496 121.259 146.424 123.136C143.437 125.013 141.133 127.573 139.512 130.816C137.891 133.973 137.08 137.643 137.08 141.824C137.08 145.92 137.891 149.589 139.512 152.832C141.219 155.989 143.523 158.507 146.424 160.384C149.411 162.261 152.824 163.2 156.664 163.2C158.797 163.2 160.632 163.072 162.168 162.816C163.704 162.56 164.984 162.176 166.008 161.664C167.203 160.981 168.269 160.256 169.208 159.488C170.147 158.72 171.555 158.336 173.432 158.336C175.651 158.336 177.357 159.061 178.552 160.512C179.747 161.877 180.344 163.584 180.344 165.632C180.344 167.765 179.149 169.728 176.76 171.52C174.371 173.227 171.213 174.635 167.288 175.744C163.448 176.768 159.267 177.28 154.744 177.28C148.003 177.28 142.157 175.744 137.208 172.672C132.259 169.515 128.419 165.248 125.688 159.872C123.043 154.496 121.72 148.48 121.72 141.824C121.72 134.827 123.128 128.683 125.944 123.392C128.845 118.016 132.813 113.835 137.848 110.848C142.968 107.776 148.813 106.24 155.384 106.24Z" fill="#1C1C1C"/>
<path d="M214.46 168.192C214.46 170.411 213.692 172.288 212.156 173.824C210.705 175.275 208.871 176 206.652 176C204.519 176 202.727 175.275 201.276 173.824C199.825 172.288 199.1 170.411 199.1 168.192V89.088C199.1 86.8693 199.825 85.0347 201.276 83.584C202.812 82.048 204.689 81.28 206.908 81.28C209.127 81.28 210.919 82.048 212.284 83.584C213.735 85.0347 214.46 86.8693 214.46 89.088V168.192Z" fill="#FFFDFC"/>
<path d="M154.284 106.24C159.148 106.24 163.372 106.752 166.956 107.776C170.625 108.8 173.441 110.251 175.404 112.128C177.452 113.92 178.476 116.096 178.476 118.656C178.476 120.363 177.964 121.984 176.94 123.52C175.916 124.971 174.423 125.696 172.46 125.696C171.095 125.696 169.943 125.525 169.004 125.184C168.151 124.757 167.383 124.245 166.7 123.648C166.017 123.051 165.207 122.496 164.268 121.984C163.415 121.472 162.092 121.088 160.3 120.832C158.593 120.491 157.313 120.32 156.46 120.32C152.108 120.32 148.396 121.259 145.324 123.136C142.337 125.013 140.033 127.573 138.412 130.816C136.791 133.973 135.98 137.643 135.98 141.824C135.98 145.92 136.791 149.589 138.412 152.832C140.119 155.989 142.423 158.507 145.324 160.384C148.311 162.261 151.724 163.2 155.564 163.2C157.697 163.2 159.532 163.072 161.068 162.816C162.604 162.56 163.884 162.176 164.908 161.664C166.103 160.981 167.169 160.256 168.108 159.488C169.047 158.72 170.455 158.336 172.332 158.336C174.551 158.336 176.257 159.061 177.452 160.512C178.647 161.877 179.244 163.584 179.244 165.632C179.244 167.765 178.049 169.728 175.66 171.52C173.271 173.227 170.113 174.635 166.188 175.744C162.348 176.768 158.167 177.28 153.644 177.28C146.903 177.28 141.057 175.744 136.108 172.672C131.159 169.515 127.319 165.248 124.588 159.872C121.943 154.496 120.62 148.48 120.62 141.824C120.62 134.827 122.028 128.683 124.844 123.392C127.745 118.016 131.713 113.835 136.748 110.848C141.868 107.776 147.713 106.24 154.284 106.24Z" fill="#22D3EE"/>
</svg>
