<?xml version="1.0" ?><svg style="enable-background:new 0 0 128 128;" version="1.1" viewBox="0 0 128 128" xml:space="preserve" xmlns="http://www.w3.org/2000/svg" xmlns:xlink="http://www.w3.org/1999/xlink"><style type="text/css">
	.st0{fill:none;stroke:#e3e3e3;stroke-width:8;stroke-miterlimit:10;}
	.st1{display:none;}
	.st2{display:inline;opacity:0.25;fill:#e3e3e3;}
</style><g id="_x31_2_3D_Printing"/><g id="_x31_1_VR_Gear"/><g id="_x31_0_Virtual_reality"/><g id="_x39__Augmented_reality"/><g id="_x38__Teleport"/><g id="_x37__Glassess"/><g id="_x36__Folding_phone"/><g id="_x35__Drone"/><g id="_x34__Retina_scan"/><g id="_x33__Smartwatch"/><g id="_x32__Bionic_Arm"><g><path d="M88,32v24h6v6.1l-5.7,4.6L81.7,60H78v-8h6V16H72V8H52v8H40v8H28v28h6v8h-6v36h4v12h8v12h40v-12h8V96h4V73.9l10-8V56h6V32    H88z M72,24h4v20h-4V24z M66,52h4v8h-4V52z M60,16h4v28h-4V16z M54,52h4v8h-4V52z M48,24h4v20h-4V24z M42,52h4v8h-4V52z M36,32h4    v12h-4V32z M72,112H48v-4h24V112z M80,100H40v-4h40V100z M84,88H36V68h42.3l5.7,5.7V88z M100,48h-4v-8h4V48z"/><rect height="8" width="8" x="40" y="72"/></g></g><g id="_x31__Chip"/><g class="st1" id="Guide"><path class="st2" d="M120,8v112H8V8H120 M128,0H0v128h128V0L128,0z"/></g></svg>